<?xml version="1.0" encoding="UTF-8" standalone="no"?>
<!-- Created with Inkscape (http://www.inkscape.org/) -->

<svg
   xmlns:dc="http://purl.org/dc/elements/1.1/"
   xmlns:cc="http://creativecommons.org/ns#"
   xmlns:rdf="http://www.w3.org/1999/02/22-rdf-syntax-ns#"
   xmlns:svg="http://www.w3.org/2000/svg"
   xmlns="http://www.w3.org/2000/svg"
   xmlns:sodipodi="http://sodipodi.sourceforge.net/DTD/sodipodi-0.dtd"
   xmlns:inkscape="http://www.inkscape.org/namespaces/inkscape"
   width="64px"
   height="64px"
   id="svg2985"
   version="1.1"
   inkscape:version="0.48.4 r"
   sodipodi:docname="favicon.svg"
   inkscape:export-filename="C:\vvvv\projects\renaudgervais.github.io\images\src\favicon.png"
   inkscape:export-xdpi="90"
   inkscape:export-ydpi="90">
  <defs
     id="defs2987" />
  <sodipodi:namedview
     id="base"
     pagecolor="#ffffff"
     bordercolor="#666666"
     borderopacity="1.0"
     inkscape:pageopacity="0.0"
     inkscape:pageshadow="2"
     inkscape:zoom="0.97227183"
     inkscape:cx="23.299059"
     inkscape:cy="-105.32341"
     inkscape:current-layer="g3770"
     showgrid="true"
     inkscape:document-units="px"
     inkscape:grid-bbox="true"
     inkscape:window-width="1133"
     inkscape:window-height="1166"
     inkscape:window-x="1222"
     inkscape:window-y="225"
     inkscape:window-maximized="0" />
  <metadata
     id="metadata2990">
    <rdf:RDF>
      <cc:Work
         rdf:about="">
        <dc:format>image/svg+xml</dc:format>
        <dc:type
           rdf:resource="http://purl.org/dc/dcmitype/StillImage" />
        <dc:title></dc:title>
      </cc:Work>
    </rdf:RDF>
  </metadata>
  <g
     id="layer1"
     inkscape:label="Layer 1"
     inkscape:groupmode="layer">
    <g
       style="font-size:40px;font-style:normal;font-variant:normal;font-weight:bold;font-stretch:normal;text-align:start;line-height:125%;letter-spacing:0px;word-spacing:0px;writing-mode:lr-tb;text-anchor:start;fill:#000000;fill-opacity:1;stroke:none;font-family:Gungsuh;-inkscape-font-specification:Gungsuh Bold"
       id="text2993">
      <g
         id="g3770"
         transform="translate(3.0715745,4.038246e-7)">
        <g
           id="g3790"
           transform="matrix(1.884167,0,0,1.884167,-25.577559,-28.30837)">
          <g
             transform="translate(1.8463065,-0.08000233)"
             id="g3783">
            <g
               style="font-size:40px;font-style:normal;font-variant:normal;font-weight:normal;font-stretch:normal;text-align:start;line-height:125%;letter-spacing:0px;word-spacing:0px;writing-mode:lr-tb;text-anchor:start;fill:#000000;fill-opacity:1;stroke:none;font-family:Gungsuh;-inkscape-font-specification:Gungsuh"
               id="text3774">
              <path
                 d="m 23.531697,21.056396 6.09375,0 c 1.5104,2.6e-5 2.656232,0.442734 3.4375,1.328125 0.755189,0.859399 1.132793,2.161481 1.132813,3.90625 -2e-5,1.744811 -0.377624,3.085955 -1.132813,4.023438 -0.781268,0.989598 -1.9271,1.48439 -3.4375,1.484375 l -6.09375,0 z m -3.59375,0.78125 0,20.820313 c -6e-6,0.286462 -0.260422,0.455732 -0.78125,0.507812 -0.338546,0.02605 -4.331452,4e-6 -5.164781,-0.07813 -0.338545,-0.104163 -0.611982,0.02605 -0.820313,0.390625 -0.156252,0.312503 -0.234377,0.729169 -0.234375,1.25 -2e-6,0.520835 0.07812,0.937501 0.234375,1.25 0.208331,0.390626 0.481768,0.546875 0.820313,0.46875 1.380203,-0.104166 6.1804,-0.156249 7.586656,-0.15625 1.432283,1e-6 2.903636,0.05208 4.414063,0.15625 0.416654,0.07813 0.742175,-0.07812 0.976562,-0.46875 0.234362,-0.312499 0.35155,-0.729165 0.351563,-1.25 -1.3e-5,-0.520831 -0.117201,-0.937497 -0.351563,-1.25 -0.234387,-0.36458 -0.559908,-0.494788 -0.976562,-0.390625 -0.833345,0.07813 -1.419282,0.10417 -1.757813,0.07813 -0.468759,-0.05208 -0.703134,-0.22135 -0.703125,-0.507812 l 0,-7.5 5.15625,0 c 1.536442,0.677094 2.77342,1.966155 3.710938,3.867187 0.807272,1.61459 1.341126,3.52865 1.601562,5.742188 l 0,0.234375 c 0.02602,0.625001 0.09113,1.015625 0.195313,1.171875 0.15623,0.286458 0.468729,0.377604 0.9375,0.273437 0.65102,-0.07812 1.380186,-0.117187 2.1875,-0.117187 0.781226,0 1.6406,0.03906 2.578125,0.117187 0.41664,0.05208 0.742161,-0.104166 0.976562,-0.46875 0.234348,-0.33854 0.351536,-0.755207 0.351563,-1.25 -2.7e-5,-0.520831 -0.117215,-0.937497 -0.351563,-1.25 -0.234401,-0.36458 -0.559922,-0.494788 -0.976562,-0.390625 -0.8594,0.130212 -1.419295,0.169274 -1.679688,0.117188 -0.364607,-0.05208 -0.598982,-0.260413 -0.703125,-0.625 -0.338564,-1.744786 -0.768252,-3.177076 -1.289062,-4.296875 -0.859396,-1.953115 -1.979187,-3.229155 -3.359375,-3.828125 1.614563,-0.624987 2.825499,-1.523424 3.632812,-2.695313 0.937477,-1.35415 1.406226,-3.177065 1.40625,-5.46875 -2.4e-5,-2.578102 -0.559919,-4.583308 -1.679687,-6.015625 -1.328146,-1.718722 -3.437519,-2.578096 -6.328125,-2.578125 -3.151055,0.104196 -5.62501,0.156279 -7.421875,0.15625 -1.796882,2.9e-5 -6.896557,-0.05205 -8.485094,-0.15625 -0.338545,-0.05205 -0.611982,0.104196 -0.820313,0.46875 -0.156252,0.312528 -0.234377,0.716174 -0.234375,1.210938 -2e-6,0.468777 0.07812,0.859401 0.234375,1.171875 0.208331,0.364609 0.481768,0.533879 0.820313,0.507812 0.833329,-0.05206 4.826235,-0.03904 5.164781,0.03906 0.520828,0.104192 0.781244,0.351587 0.78125,0.74219 z"
                 id="path3779"
                 inkscape:connector-curvature="0"
                 sodipodi:nodetypes="cccccscccccccsccsccccccccccccccsccccccccccccccccscccc" />
            </g>
          </g>
          <path
             sodipodi:nodetypes="ccccccccccc"
             transform="translate(-3.0715745,-4.038246e-7)"
             inkscape:connector-curvature="0"
             id="path3788"
             d="m 24.636364,20.522727 c 0,0 -0.477274,-0.03409 -0.875001,0.02273 -0.75,0.136364 -0.965908,0.624134 -0.965908,1.295455 0,0.71672 -0.04546,19.812113 -0.04546,20.615643 0.03214,1.285649 1.736237,1.124943 0.788071,1.141013 l -2.674435,0.01607 0,-23.159091 -1.590909,0 0,-1.045454 5.454546,0 z"
             style="fill:#000000;stroke:#000000;stroke-width:1px;stroke-linecap:butt;stroke-linejoin:miter;stroke-opacity:1" />
        </g>
      </g>
    </g>
  </g>
</svg>
