<?xml version="1.0" encoding="UTF-8" standalone="no"?>
<!-- Created with Inkscape (http://www.inkscape.org/) -->

<svg
   xmlns:dc="http://purl.org/dc/elements/1.1/"
   xmlns:cc="http://creativecommons.org/ns#"
   xmlns:rdf="http://www.w3.org/1999/02/22-rdf-syntax-ns#"
   xmlns:svg="http://www.w3.org/2000/svg"
   xmlns="http://www.w3.org/2000/svg"
   xmlns:sodipodi="http://sodipodi.sourceforge.net/DTD/sodipodi-0.dtd"
   xmlns:inkscape="http://www.inkscape.org/namespaces/inkscape"
   width="222"
   height="95"
   id="svg2"
   version="1.1"
   inkscape:version="0.48.4 r"
   inkscape:export-filename="C:\vvvv\projects\renaudgervais.github.io\images\logo_potioc_low_res.png"
   inkscape:export-xdpi="90"
   inkscape:export-ydpi="90"
   sodipodi:docname="New document 1">
  <defs
     id="defs4">
    <filter
       id="filter3193"
       style="color-interpolation-filters:sRGB;"
       inkscape:label="Drop Shadow">
      <feFlood
         id="feFlood3195"
         flood-opacity="0.6"
         flood-color="rgb(0,0,0)"
         result="flood" />
      <feComposite
         id="feComposite3197"
         in2="SourceGraphic"
         in="flood"
         operator="in"
         result="composite1" />
      <feGaussianBlur
         id="feGaussianBlur3199"
         in="composite"
         stdDeviation="5"
         result="blur" />
      <feOffset
         id="feOffset3201"
         dx="8"
         dy="8"
         result="offset" />
      <feComposite
         id="feComposite3203"
         in2="offset"
         in="SourceGraphic"
         operator="over"
         result="composite2" />
    </filter>
  </defs>
  <sodipodi:namedview
     id="base"
     pagecolor="#ffffff"
     bordercolor="#666666"
     borderopacity="1.0"
     inkscape:pageopacity="0.0"
     inkscape:pageshadow="2"
     inkscape:zoom="1.979899"
     inkscape:cx="86.242501"
     inkscape:cy="28.762012"
     inkscape:document-units="px"
     inkscape:current-layer="g3079"
     showgrid="false"
     inkscape:window-width="904"
     inkscape:window-height="697"
     inkscape:window-x="584"
     inkscape:window-y="215"
     inkscape:window-maximized="0" />
  <metadata
     id="metadata7">
    <rdf:RDF>
      <cc:Work
         rdf:about="">
        <dc:format>image/svg+xml</dc:format>
        <dc:type
           rdf:resource="http://purl.org/dc/dcmitype/StillImage" />
        <dc:title></dc:title>
      </cc:Work>
    </rdf:RDF>
  </metadata>
  <g
     inkscape:label="Layer 1"
     inkscape:groupmode="layer"
     id="layer1"
     transform="translate(0,-957.36218)">
    <g
       id="g3079"
       transform="matrix(0.13882703,0,0,0.13882703,4.1031869,959.81281)"
       style="filter:url(#filter3193)">
      <path
         id="path2987"
         d="m 0,0 1540,0 0,649 L 0,649 0,0 z"
         inkscape:connector-curvature="0"
         style="fill:none" />
      <path
         id="path2989"
         d="m 693.63,7.72 c 9.66,-0.05 19.32,-0.01 28.98,-0.02 0.02,49.31 0.01,98.63 0.01,147.94 18.85,0.06 37.7,-0.04 56.55,0.06 0,9.66 0,19.33 0,28.99 -18.84,0.15 -37.67,0.03 -56.51,0.07 -0.08,40.07 -0.04,80.15 -0.02,120.22 0.33,37.85 19.67,74.97 50.67,96.74 19.47,14.01 43.32,21.64 67.3,21.74 -0.01,9.45 -0.01,18.89 0,28.33 -35.62,0.66 -71.19,-12.84 -97.71,-36.56 -31.45,-27.67 -49.68,-69.4 -49.27,-111.22 -0.05,-39.76 0.12,-79.52 -0.08,-119.27 -21.1,0.03 -42.2,0.01 -63.3,0.01 0,-9.7 -0.01,-19.39 0.01,-29.08 21.13,-0.02 42.26,-0.01 63.38,-0.01 -0.02,-49.31 0,-98.62 -0.01,-147.94 z"
         inkscape:connector-curvature="0"
         style="fill:#5a5a5a" />
      <path
         id="path2991"
         d="m 863.43,81.17 c 8.68,-0.81 17.72,-0.07 26.54,-0.36 1.37,0.2 3.26,-0.56 4.17,0.88 0.1,16.36 0.02,32.72 0.03,49.08 -10.29,0.05 -20.58,0.01 -30.87,0.02 0.08,-16.54 -0.18,-33.09 0.13,-49.62 z"
         inkscape:connector-curvature="0"
         style="fill:#5a5a5a" />
      <path
         style="fill:#5a5a5a"
         d="m 0.125,11.125 c -2.9376111,-0.05075 -5.8978934,0.416681 -8.6875,1.34375 -4.817529,1.555224 -9.092424,4.588208 -12.25,8.53125 -0.02793,-3.288487 0.01746,-6.555263 0,-9.84375 l -5.34375,0 c -0.01396,25.890726 -0.0017,51.765524 0,77.65625 1.782137,-0.0017 3.559868,0.0017 5.34375,0 0.007,-12.012403 -0.02618,-24.018847 0,-36.03125 2.930663,3.758021 6.877063,6.725351 11.34375,8.40625 4.318321,1.666935 9.07278451,2.033552 13.625,1.28125 6.702649,-1.141545 12.842204,-5.087996 16.6875,-10.6875 C 23.847723,47.441983 25.54572,42.163809 25.4375,36.875 25.500337,32.748682 24.430334,28.625534 22.53125,24.96875 20.024739,20.133767 15.963812,16.127346 11.0625,13.75 7.6683023,12.074992 3.9019286,11.190246 0.125,11.125 z m -1.21875,5.34375 c 3.6419094,-0.131228 7.3178187,0.627773 10.53125,2.375 4.313085,2.288326 7.775296,6.163044 9.53125,10.71875 1.534278,3.89766 1.784733,8.275033 0.8125,12.34375 -0.900668,3.768494 -2.873953,7.244222 -5.65625,9.9375 -3.316415,3.232632 -7.7564562,5.308562 -12.375,5.71875 -2.33894508,0.275786 -4.7499058,0.02556 -7.03125,-0.53125 -4.955422,-1.239292 -9.375698,-4.405834 -12.15625,-8.6875 -2.057923,-3.141867 -3.258221,-6.865233 -3.34375,-10.625 -0.268804,-6.212168 2.536863,-12.457802 7.3125,-16.4375 3.04412,-2.586803 6.8450208,-4.24747 10.8125,-4.71875 0.517317,-0.0552 1.0422272,-0.075 1.5625,-0.09375 z"
         transform="matrix(5.7290785,0,0,5.7290785,153.09491,91.833978)"
         id="path2993"
         inkscape:connector-curvature="0" />
      <path
         style="fill:#53a8b1"
         d="M 67.8125 24.0625 C 67.186298 24.086177 66.559098 24.136495 65.9375 24.21875 C 63.621865 24.520005 61.359491 25.217835 59.28125 26.28125 C 55.394093 28.260923 52.179696 31.525354 50.25 35.4375 C 48.381388 39.159453 47.702341 43.442114 48.28125 47.5625 C 49.085059 53.661171 52.840563 59.281934 58.15625 62.375 C 63.294238 65.440301 69.803899 66.039397 75.4375 64.0625 C 79.981309 62.503472 83.897618 59.253716 86.34375 55.125 C 89.184151 50.38961 89.933375 44.499022 88.46875 39.1875 C 87.208201 34.531241 84.227394 30.37726 80.25 27.65625 C 76.642233 25.151463 72.195915 23.896764 67.8125 24.0625 z M 68.09375 28.21875 C 71.188158 28.129049 74.289374 28.925368 76.9375 30.53125 C 80.871858 32.877427 83.744129 36.933951 84.59375 41.4375 C 85.641894 46.665726 83.938579 52.382223 80.125 56.125 C 76.639053 59.726173 71.399178 61.518449 66.4375 60.84375 C 61.141249 60.221805 56.326713 56.784688 53.9375 52.03125 C 52.184115 48.593893 51.724013 44.530968 52.625 40.78125 C 53.346901 37.715949 54.985051 34.873346 57.28125 32.71875 C 59.838444 30.255958 63.21824 28.67345 66.75 28.3125 C 67.189561 28.262522 67.651692 28.231564 68.09375 28.21875 z "
         transform="matrix(7.2032082,0,0,7.2032082,-29.556109,-17.652398)"
         id="path2995" />
      <path
         id="path2997"
         d="m 863.3,451.79 c 0.03,-98.72 -0.07,-197.44 0.06,-296.15 10.27,0.06 20.54,-0.02 30.81,0.04 0.03,98.69 0,197.38 0.02,296.07 -10.3,0.09 -20.59,0.03 -30.89,0.04 z"
         inkscape:connector-curvature="0"
         style="fill:#5a5a5a" />
      <path
         style="fill:#53a8b1"
         d="m 161.15625,11.125 c -0.9806,0.0193 -1.96439,0.0826 -2.9375,0.21875 -6.42163,0.830849 -12.42954,4.221268 -16.5,9.25 -3.7458,4.587125 -5.87708,10.5081 -5.8125,16.4375 -0.0698,5.391792 1.66714,10.783819 4.8125,15.15625 3.16456,4.40385 7.73788,7.751534 12.90625,9.40625 3.79119,1.258492 7.86597,1.528881 11.8125,1 6.26453,-0.886705 12.15893,-4.183879 16.1875,-9.0625 3.90813,-4.669163 6.08063,-10.75202 5.9375,-16.84375 -0.0332,-6.760249 -2.92532,-13.457414 -7.78125,-18.15625 -4.86749,-4.86902 -11.76078,-7.54132 -18.625,-7.40625 z m 1.0625,5.21875 c 3.9995,0.136148 7.95906,1.445796 11.21875,3.78125 4.74771,3.333869 7.96729,8.786702 8.5625,14.5625 0.82212,6.702649 -1.97392,13.679934 -7.15625,18 -2.54142,2.157415 -5.61793,3.697585 -8.875,4.40625 -4.68662,1.03507 -9.73072,0.352403 -13.96875,-1.90625 -4.91702,-2.564112 -8.71415,-7.191822 -10.21875,-12.53125 -1.63901,-5.589031 -0.74085,-11.848688 2.40625,-16.75 3.09125,-4.890839 8.33907,-8.380582 14.0625,-9.28125 1.31784,-0.219931 2.63558,-0.326633 3.96875,-0.28125 z"
         transform="matrix(5.7290785,0,0,5.7290785,153.09491,91.833978)"
         id="path2999"
         inkscape:connector-curvature="0" />
      <path
         id="path3001"
         d="m 1336.45,171.54 c 34.64,-17.79 76.43,-20.84 113.31,-8.38 36.91,12.14 68.45,39.56 85.63,74.41 -11.7,0 -23.41,0.19 -35.1,-0.08 -9.95,-14.41 -22.74,-26.96 -37.95,-35.76 -32.58,-19.54 -74.8,-21.65 -109.16,-5.42 -32.07,14.65 -56.67,44.46 -64.97,78.72 -9.24,36.07 0.04,76.23 24.22,104.55 12.91,15.51 29.95,27.44 48.8,34.58 35.49,13.51 77.46,8.52 108.54,-13.4 12.35,-8.63 23.01,-19.69 31.05,-32.43 11.99,-0.06 23.98,-0.19 35.97,0.07 -13.74,28.42 -36.62,52.33 -64.72,66.81 -38.44,20.21 -85.87,22.19 -125.92,5.48 -30.85,-12.74 -57.02,-36.4 -72.82,-65.8 -20.7,-37.78 -23.3,-84.65 -7.76,-124.73 12.93,-33.71 38.64,-62.34 70.88,-78.62 z"
         inkscape:connector-curvature="0"
         style="fill:#5a5a5a" />
      <path
         id="path3009"
         d="m 477.41,230.49 c 4.91,-0.93 10.19,-0.12 14.36,2.74 9.53,6.18 15.64,16.97 17.24,28.11 0.99,6.66 0.46,13.82 -2.82,19.82 -2.63,4.7 -7.5,8.63 -13.1,8.55 -5.86,0.43 -11.25,-2.66 -15.56,-6.32 -5.23,-4.82 -9.01,-11.11 -11.47,-17.73 -1.81,-7.09 -2.64,-14.71 -0.75,-21.86 1.65,-5.95 5.78,-11.85 12.1,-13.31 z"
         inkscape:connector-curvature="0"
         style="fill:#5a5a5a" />
      <path
         id="path3011"
         d="m 468.3,249.01 c -0.72,-2.88 1.53,-6.15 4.64,-5.78 3.08,-0.56 4.71,2.36 5.64,4.77 -0.75,2.81 -2.78,4.8 -5.59,5.53 -1.96,-0.93 -4.69,-1.93 -4.69,-4.52 z"
         inkscape:connector-curvature="0"
         style="fill:#fefefe" />
      <path
         id="path3013"
         d="m 400.23,265.16 c 6.69,-1.73 13.6,1.61 18.43,6.13 6.67,5.87 10.49,14.26 12.55,22.76 1.42,8.11 1.11,17.25 -3.94,24.13 -3.8,5.6 -11.44,7.83 -17.75,5.52 -9.83,-3.33 -16.47,-12.36 -20.06,-21.72 -2.45,-7.02 -3.77,-14.75 -1.91,-22.07 1.34,-6.61 5.78,-13.19 12.68,-14.75 z"
         inkscape:connector-curvature="0"
         style="fill:#5a5a5a" />
      <path
         id="path3015"
         d="m 391.41,281.51 c 3.13,-2.72 8.41,0.51 7.99,4.47 -0.15,3.78 -5.09,6.14 -8.04,3.69 -2.79,-1.78 -2.77,-6.41 0.05,-8.16 z"
         inkscape:connector-curvature="0"
         style="fill:#fefefe" />
      <path
         id="path3017"
         d="m 524.44,347.26 c 6.57,-2.81 13.22,-5.48 19.46,-8.98 -5.17,10.9 -13.55,20.17 -23.02,27.55 -14.94,11.85 -33.87,18.45 -52.92,18.7 -23.37,0.54 -47.07,-9.01 -62.81,-26.44 15.82,7.39 33.72,7.32 50.8,6.42 23.58,-1.95 46.58,-8.49 68.49,-17.25 z"
         inkscape:connector-curvature="0"
         style="fill:#5a5a5a" />
      <path
         id="path3019"
         d="m 485.32,503.94 c 2.12,0.29 5.39,-1.11 6.75,0.93 0.2,22.71 0,45.43 0.09,68.14 -0.04,9.42 5.42,18.57 13.63,23.15 4.08,2.49 8.85,3.36 13.55,3.71 0.02,2.31 0.03,4.62 0.04,6.94 -17.48,0.9 -33.59,-14.32 -34.08,-31.73 -0.02,-23.71 -0.06,-47.42 0.02,-71.14 z"
         inkscape:connector-curvature="0"
         style="fill:#53a8b1" />
      <path
         id="path3021"
         d="m 875.62,503.86 c 2.24,0 4.49,0 6.75,0.02 0.08,10.03 0.05,20.06 0.01,30.1 0.2,1.34 -0.42,3.09 0.44,4.23 4.2,0.22 8.42,-0.03 12.63,0.1 -0.01,2.3 -0.02,4.61 -0.04,6.92 -4.34,0.01 -8.67,0 -13.01,0.03 0.05,9.27 -0.05,18.54 0.05,27.81 0.08,10.07 6.27,19.67 15.18,24.24 3.74,1.99 7.99,2.62 12.17,3 -0.02,2.18 -0.03,4.37 -0.04,6.56 -9.17,0.3 -18.19,-3.58 -24.64,-10.02 -6.05,-6.36 -9.76,-15.06 -9.58,-23.88 0.04,-9.24 0.02,-18.48 0.02,-27.72 -4.94,-0.03 -9.88,0.01 -14.81,-0.04 -0.04,-2.27 -0.06,-4.54 -0.08,-6.8 4.92,-0.24 9.85,-0.13 14.78,-0.09 0.3,-11.48 -0.03,-22.97 0.17,-34.46 z"
         inkscape:connector-curvature="0"
         style="fill:#53a8b1" />
      <path
         id="path3023"
         d="m 1238.53,503.86 c 2.24,0 4.49,0.01 6.76,0.03 0.04,11.43 0.05,22.86 -0.01,34.29 4.36,0.18 8.73,0.05 13.1,0.15 -0.02,2.29 -0.02,4.59 -0.03,6.9 -4.36,0.01 -8.7,0 -13.04,0.02 0.09,9.89 -0.16,19.78 0.13,29.67 0.93,13.81 13.41,25.42 27.27,25.4 -0.02,2.17 -0.03,4.36 -0.03,6.55 -9.37,0.31 -18.61,-3.74 -25.08,-10.44 -6.01,-6.54 -9.52,-15.46 -9.15,-24.38 0.04,-8.93 0,-17.86 0.02,-26.79 -4.93,-0.04 -9.86,-0.01 -14.79,-0.04 -0.03,-2.29 -0.04,-4.59 -0.04,-6.88 4.91,-0.11 9.83,-0.06 14.75,-0.05 0.22,-11.47 -0.05,-22.95 0.14,-34.43 z"
         inkscape:connector-curvature="0"
         style="fill:#53a8b1" />
      <path
         id="path3025"
         d="m 749.36,521.13 c 2.41,-0.03 4.84,-0.03 7.27,0.01 0.02,3.84 0.02,7.68 -0.01,11.53 -2.43,0.02 -4.84,0.02 -7.25,0.01 -0.05,-3.85 -0.05,-7.7 -0.01,-11.55 z"
         inkscape:connector-curvature="0"
         style="fill:#53a8b1" />
      <path
         id="path3027"
         d="m 1287.78,521.16 c 2.48,-0.06 4.98,-0.05 7.49,0.03 0,3.81 -0.01,7.62 0,11.43 -2.51,0.06 -5.01,0.07 -7.5,0.03 -0.02,-3.84 -0.02,-7.67 0.01,-11.49 z"
         inkscape:connector-curvature="0"
         style="fill:#53a8b1" />
      <path
         style="fill:#53a8b1"
         d="m -1.53125,77.90625 c 0.00698,6.000965 -0.010642,11.999035 0.03125,18 0.4119336,-0.007 0.80681639,-0.0035 1.21875,0 0.0331642,-2.752624 0.0120497,-5.497376 0.03125,-8.25 0.66677389,0.774994 1.4879581,1.421512 2.4375,1.8125 C 4.6294285,90.496839 7.7122309,89.685343 9.25,87.5 10.986754,85.239602 10.783317,81.752236 8.78125,79.71875 7.6466871,78.523095 5.9914844,77.838176 4.34375,77.90625 2.5738319,77.88705 0.87409002,78.775743 -0.25,80.125 c -0.005236,-0.740084 -0.0190316,-1.480411 -0.03125,-2.21875 -0.42066102,0 -0.8310845,-0.0052 -1.25,0 z m 6.0625,1.25 c 2.3734422,0.01231 4.6012673,2.03424 4.65625,4.46875 0.232149,2.420983 -1.7109992,4.759124 -4.125,5 -2.3529089,0.350842 -4.72843839,-1.367755 -5.1875,-3.6875 -0.62488234,-2.466365 1.134198,-5.18497 3.625,-5.65625 0.3379688,-0.08509 0.6921868,-0.126759 1.03125,-0.125 z"
         transform="matrix(5.7290785,0,0,5.7290785,153.09491,91.833978)"
         id="path3029"
         inkscape:connector-curvature="0" />
      <path
         style="fill:#53a8b1"
         d="M 18.5625,77.90625 C 18.333416,77.9182 18.101476,77.96225 17.875,78 c -2.407019,0.371788 -4.410871,2.365672 -4.84375,4.75 -0.443352,2.24818 0.486389,4.741171 2.375,6.0625 1.417331,1.062998 3.298156,1.330233 5,0.9375 1.771664,-0.460807 3.331312,-1.770397 4.03125,-3.46875 C 25.428933,84.010379 24.820706,81.154716 22.96875,79.5 21.797314,78.383546 20.166089,77.822631 18.5625,77.90625 z m 0.09375,1.21875 c 2.180502,-0.110061 4.351257,1.484435 4.8125,3.65625 0.691211,2.530948 -1.152724,5.379789 -3.75,5.78125 -2.623459,0.567281 -5.361938,-1.556891 -5.53125,-4.21875 -0.27055,-2.258653 1.326707,-4.535365 3.53125,-5.0625 0.307205,-0.08815 0.626,-0.140527 0.9375,-0.15625 z"
         transform="matrix(5.7290785,0,0,5.7290785,153.09491,91.833978)"
         id="path3031"
         inkscape:connector-curvature="0" />
      <path
         style="fill:#53a8b1"
         d="m 28.03125,77.90625 c -0.0052,5.99922 0.0017,12.00078 0,18 0.432879,0.0017 0.877875,0.0087 1.3125,0 0,-2.740406 -0.01222,-5.478344 0,-8.21875 1.136308,1.371948 2.882672,2.283333 4.6875,2.21875 1.979376,0.07331 3.924783,-1.008516 5,-2.65625 0.897177,-1.351003 1.205065,-3.073098 0.84375,-4.65625 -0.368297,-1.712317 -1.53329,-3.23531 -3.09375,-4.03125 -2.447165,-1.281183 -5.71471,-0.641874 -7.4375,1.53125 -0.007,-0.717393 -0.02618,-1.411098 0,-2.125 -0.43637,-0.05585 -0.874384,-0.07995 -1.3125,-0.0625 z m 5.90625,1.25 c 2.196157,-0.06458 4.334575,1.584998 4.75,3.78125 0.670265,2.703751 -1.537185,5.617512 -4.3125,5.71875 -2.541421,0.240876 -4.994595,-1.944615 -5.03125,-4.5 C 29.160474,81.92727 30.832112,79.787271 33,79.3125 c 0.310696,-0.08247 0.623763,-0.147025 0.9375,-0.15625 z"
         transform="matrix(5.7290785,0,0,5.7290785,153.09491,91.833978)"
         id="path3033"
         inkscape:connector-curvature="0" />
      <path
         id="path3035"
         d="m 397.44,538.29 c 2.3,-0.02 4.6,0.01 6.9,0.09 -0.04,11.56 -0.04,23.12 0,34.68 0,12.66 10.08,24.41 22.62,26.3 10.18,1.78 21.13,-2.94 26.76,-11.62 3.09,-4.61 4.79,-10.16 4.76,-15.71 0.01,-11.24 0.01,-22.47 -0.01,-33.7 2.41,-0.05 4.83,-0.05 7.25,-0.03 0,22.83 0.02,45.66 -0.01,68.5 -2.4,0.01 -4.81,0.02 -7.2,0.02 -0.04,-4.2 -0.02,-8.39 -0.06,-12.58 -10.11,12.89 -29.79,16.57 -43.91,8.31 -10.74,-6 -17.72,-18.24 -17.13,-30.56 0.04,-11.23 -0.01,-22.47 0.03,-33.7 z"
         inkscape:connector-curvature="0"
         style="fill:#53a8b1" />
      <path
         style="fill:#53a8b1"
         d="m 71.6875,77.90625 c -0.280515,0.02224 -0.536932,0.09232 -0.8125,0.15625 -2.005558,0.427643 -3.711886,1.994779 -4.34375,3.9375 -0.70692,2.056177 -0.19385,4.45508 1.3125,6.03125 1.120599,1.1974 2.755025,1.950056 4.40625,1.875 1.789118,0.05585 3.497419,-0.852038 4.625,-2.21875 -0.0017,0.731357 0.02601,1.456143 0.03125,2.1875 0.41717,0.0017 0.831084,0.0017 1.25,0 0.01047,-3.98668 0.0052,-7.95082 0,-11.9375 -0.424152,-0.0052 -0.858844,-0.0192 -1.28125,0 0.01396,0.752302 0.01745,1.528948 0,2.28125 -1.194346,-1.591443 -3.223898,-2.468213 -5.1875,-2.3125 z m 0.34375,1.21875 c 2.129552,-0.05548 4.204874,1.520386 4.6875,3.625 0.720884,2.513493 -1.057397,5.355184 -3.625,5.8125 -2.398291,0.553318 -4.962392,-1.150413 -5.5,-3.53125 -0.701684,-2.480329 1.024739,-5.262842 3.53125,-5.78125 0.30175,-0.07658 0.602028,-0.117074 0.90625,-0.125 z"
         transform="matrix(5.7290785,0,0,5.7290785,153.09491,91.833978)"
         id="path3037"
         inkscape:connector-curvature="0" />
      <path
         id="path3039"
         d="m 621.15,538.2 c 2.44,-0.05 4.88,-0.01 7.32,0.15 -0.12,4.19 -0.08,8.39 -0.06,12.59 6.58,-7.99 16.75,-13.05 27.18,-12.71 -0.01,2.34 -0.01,4.68 -0.01,7.03 -13.59,0.04 -26.14,11.2 -27.06,24.87 -0.31,12.21 -0.02,24.44 -0.14,36.66 -2.42,0.02 -4.83,0.03 -7.23,0.02 -0.04,-22.87 -0.04,-45.74 0,-68.61 z"
         inkscape:connector-curvature="0"
         style="fill:#53a8b1" />
      <path
         id="path3041"
         d="m 749.36,538.3 c 2.42,-0.02 4.84,-0.02 7.27,0 0.02,22.83 0.01,45.66 0.01,68.49 -2.44,0.02 -4.86,0.03 -7.28,0.01 -0.03,-22.83 -0.03,-45.67 0,-68.5 z"
         inkscape:connector-curvature="0"
         style="fill:#53a8b1" />
      <path
         id="path3043"
         d="m 783.62,551.41 c 6.84,-8.35 17.4,-13.8 28.32,-13.16 17.44,-0.11 33.23,15.29 33.54,32.72 -0.01,11.95 0.03,23.9 -0.02,35.85 -2.42,0 -4.81,0 -7.21,-0.02 -0.04,-10.94 0,-21.87 -0.01,-32.8 -0.02,-6.27 -1.63,-12.7 -5.52,-17.72 -6.19,-8.49 -17.6,-12.81 -27.84,-10.33 -8.66,1.89 -16.09,8.36 -19.33,16.59 -2.06,4.87 -2.06,10.23 -1.97,15.43 0.01,9.61 0.02,19.22 -0.01,28.84 -2.27,0 -4.54,-0.01 -6.8,-0.02 -0.02,-22.82 0,-45.65 -0.01,-68.47 2.27,-0.03 4.54,-0.04 6.82,-0.03 0.01,4.37 -0.02,8.75 0.04,13.12 z"
         inkscape:connector-curvature="0"
         style="fill:#53a8b1" />
      <path
         style="fill:#53a8b1"
         d="m 140.46875,77.90625 c -0.58711,-0.0032 -1.18534,0.0772 -1.75,0.25 -1.63901,0.480007 -3.0223,1.727772 -3.71875,3.28125 -0.70168,1.54126 -0.71548,3.389258 -0.0312,4.9375 0.62663,1.434786 1.84804,2.599441 3.3125,3.15625 0.97922,0.399715 2.0517,0.422465 3.09375,0.3125 1.82228,-0.240876 3.43086,-1.42383 4.34375,-3 -0.62837,-0.06982 -1.44561,-0.307146 -1.875,0.3125 -1.54999,1.790864 -4.49371,1.990641 -6.3125,0.5 -1.14329,-0.877977 -1.82804,-2.282219 -1.84375,-3.71875 3.60093,-0.02793 7.18207,0.02652 10.78125,-0.0625 -0.0436,-1.377185 -0.48306,-2.723488 -1.375,-3.78125 -1.11405,-1.387658 -2.86367,-2.177845 -4.625,-2.1875 z m -0.40625,1.25 c 0.81697,-0.06452 1.63644,0.07749 2.375,0.4375 1.24976,0.595209 2.17151,1.774166 2.5625,3.09375 -3.06332,0.02269 -6.12593,0.01222 -9.1875,0 0.40495,-1.405113 1.44579,-2.637673 2.8125,-3.1875 0.45361,-0.191785 0.94732,-0.305039 1.4375,-0.34375 z"
         transform="matrix(5.7290785,0,0,5.7290785,153.09491,91.833978)"
         id="path3045"
         inkscape:connector-curvature="0" />
      <path
         id="path3047"
         d="m 1009.98,538.25 c 2.42,-0.05 4.86,-0.08 7.31,-0.09 0.16,4.25 0.08,8.51 0.11,12.77 6.57,-8 16.74,-13.06 27.17,-12.68 -0.01,2.33 -0.02,4.67 -0.04,7.01 -9.3,0.2 -18.28,5.14 -23.14,13.11 -2.72,4.35 -4.09,9.48 -4,14.6 0.03,11.23 -0.08,22.47 0.06,33.7 -2.48,0.14 -4.97,0.18 -7.44,0.12 -0.2,-22.85 -0.13,-45.7 -0.03,-68.54 z"
         inkscape:connector-curvature="0"
         style="fill:#53a8b1" />
      <path
         style="fill:#53a8b1"
         d="m 163.46875,77.9375 c -1.69204,0.13219 -3.35101,0.936456 -4.34375,2.34375 -1.73675,2.258653 -1.54204,5.779014 0.46875,7.8125 1.13805,1.204382 2.80705,1.905011 4.46875,1.8125 1.76119,0.03491 3.42619,-0.91313 4.5625,-2.21875 0.0105,0.727866 -0.007,1.459634 0,2.1875 0.41542,0.0035 0.83108,0 1.25,0 0.0192,-3.983189 0.0155,-7.954311 0.0312,-11.9375 -0.42415,-0.01047 -0.86233,-0.0035 -1.28125,0 -0.007,0.750557 0.005,1.499443 0,2.25 -0.63012,-0.685974 -1.32872,-1.334744 -2.1875,-1.71875 -0.92358,-0.445752 -1.95352,-0.610564 -2.96875,-0.53125 z m 0.0937,1.21875 c 1.82261,-0.127219 3.67984,0.911493 4.5,2.5625 0.79245,1.523805 0.6929,3.504628 -0.3125,4.90625 -0.97398,1.464459 -2.83098,2.248027 -4.5625,1.96875 -2.21851,-0.305459 -4.05586,-2.373329 -4,-4.625 -0.12044,-2.167888 1.49219,-4.214475 3.59375,-4.6875 0.25571,-0.0672 0.52088,-0.106826 0.78125,-0.125 z"
         transform="matrix(5.7290785,0,0,5.7290785,153.09491,91.833978)"
         id="path3049"
         inkscape:connector-curvature="0" />
      <path
         id="path3051"
         d="m 1158.34,545.3 c 8.36,-6.64 19.88,-8.66 30.13,-5.94 9.31,2.56 17.56,9.18 21.58,18.02 -2.73,0.05 -5.43,0.06 -8.14,0.03 -6.07,-8.83 -17.32,-13.94 -27.93,-11.62 -12.52,2.3 -22.52,14.38 -21.82,27.2 -0.26,13.14 10.69,25.08 23.66,26.51 10.08,1.43 20.51,-3.51 26.06,-11.99 2.75,-0.07 5.52,-0.07 8.3,0.01 -5.9,14.1 -22.5,21.77 -37.25,18.88 -11.92,-2.06 -22.28,-11.03 -26.04,-22.53 -4.69,-13.57 -0.13,-29.9 11.45,-38.57 z"
         inkscape:connector-curvature="0"
         style="fill:#53a8b1" />
      <path
         id="path3053"
         d="m 1287.69,538.48 c 2.52,-0.25 5.08,-0.26 7.62,-0.04 -0.1,22.77 -0.01,45.55 -0.04,68.32 -2.51,0.05 -5.01,0.05 -7.5,0.02 -0.06,-22.77 0.1,-45.54 -0.08,-68.3 z"
         inkscape:connector-curvature="0"
         style="fill:#53a8b1" />
      <path
         style="fill:#53a8b1"
         d="m 208.5625,77.90625 c -0.38065,4.09e-4 -0.78272,0.02829 -1.15625,0.09375 -2.35465,0.425897 -4.28429,2.428341 -4.6875,4.78125 -0.4451,2.138215 0.41443,4.485765 2.125,5.84375 1.76817,1.457477 4.40401,1.69132 6.4375,0.65625 2.02999,-0.989688 3.34234,-3.213588 3.28125,-5.46875 -0.0367,-1.97763 -1.09686,-3.91797 -2.78125,-4.96875 -0.95958,-0.632301 -2.0768,-0.938727 -3.21875,-0.9375 z m 0.15625,1.21875 c 2.21005,0.08629 4.2648,1.884456 4.5,4.125 0.33688,2.180106 -1.05469,4.48424 -3.15625,5.15625 -1.36322,0.483498 -2.93284,0.249149 -4.125,-0.5625 -1.5273,-1.001906 -2.37162,-2.952154 -2.03125,-4.75 0.29324,-1.944466 1.93577,-3.564304 3.875,-3.875 0.31724,-0.06131 0.62178,-0.106077 0.9375,-0.09375 z"
         transform="matrix(5.7290785,0,0,5.7290785,153.09491,91.833978)"
         id="path3055"
         inkscape:connector-curvature="0" />
      <path
         id="path3057"
         d="m 1401.14,538.3 c 2.2,-0.02 4.41,-0.02 6.64,0 0.02,4.3 -0.03,8.6 0.07,12.9 4.15,-4.37 8.83,-8.46 14.57,-10.59 9.81,-3.91 21.47,-3.08 30.53,2.41 9.96,6.02 16.97,17.18 16.81,28.98 -0.03,11.6 0.01,23.21 -0.03,34.81 -2.44,0.01 -4.87,0 -7.29,-0.03 -0.07,-11.89 0.14,-23.8 -0.09,-35.69 -0.49,-13.33 -11.98,-25.05 -25.31,-25.76 -10.53,-0.84 -21.19,5.13 -25.98,14.54 -3.76,6.73 -3.32,14.68 -3.27,22.13 -0.02,8.26 0.03,16.53 -0.02,24.8 -2.21,0.01 -4.41,0.02 -6.59,0.04 -0.14,-22.84 -0.17,-45.7 -0.04,-68.54 z"
         inkscape:connector-curvature="0"
         style="fill:#53a8b1" />
    </g>
  </g>
</svg>
